<?xml version="1.0" standalone="no"?>
<!DOCTYPE svg PUBLIC "-//W3C//DTD SVG 20010904//EN"
 "http://www.w3.org/TR/2001/REC-SVG-20010904/DTD/svg10.dtd">
<svg version="1.0" xmlns="http://www.w3.org/2000/svg"
 width="66.000000pt" height="40.000000pt" viewBox="0 0 66.000000 40.000000"
 preserveAspectRatio="xMidYMid meet">

<g transform="translate(0.000000,40.000000) scale(0.100000,-0.100000)"
fill="#000000" stroke="none">
<path d="M232 375 c-109 -24 -182 -81 -182 -144 0 -45 113 -131 173 -131 28 0
11 18 -24 25 -45 10 -99 61 -99 94 0 62 91 112 215 119 76 4 105 16 105 44 0
12 -118 8 -188 -7z"/>
<path d="M215 294 c-60 -22 -80 -47 -76 -96 1 -22 52 -57 93 -64 l33 -5 -34
18 c-89 47 -54 106 71 120 52 6 78 17 78 34 0 14 -121 9 -165 -7z"/>
<path d="M415 291 c3 -5 19 -12 36 -16 45 -10 99 -61 99 -94 0 -62 -91 -112
-215 -119 -76 -4 -105 -16 -105 -44 0 -13 121 -9 190 8 111 26 180 81 180 143
0 31 -49 82 -105 107 -51 24 -91 31 -80 15z"/>
<path d="M419 253 c90 -47 53 -107 -74 -120 -52 -5 -86 -25 -71 -40 23 -23
189 11 219 45 44 50 7 114 -75 128 l-33 5 34 -18z"/>
</g>
</svg>
